<svg version="1.0" xmlns="http://www.w3.org/2000/svg"
 width="300.000000pt" height="225.000000pt" viewBox="0 0 300.000000 225.000000"
 preserveAspectRatio="xMidYMid meet">
<g transform="translate(0.000000,225.000000) scale(0.100000,-0.100000)"
fill="#000000" stroke="none">
<path d="M1354 1926 c-6 -24 10 -63 93 -229 l33 -67 -30 -18 c-16 -10 -57 -27
-90 -38 -49 -16 -62 -24 -70 -48 -5 -16 -10 -31 -10 -32 0 -2 43 -4 95 -4 107
0 188 -14 206 -36 10 -13 2 -25 -49 -77 -69 -68 -75 -64 -46 32 8 29 13 55 10
58 -8 8 -26 -42 -39 -107 -12 -62 -15 -65 -109 -115 -95 -51 -145 -66 -210
-66 -55 0 -128 22 -128 38 1 4 40 32 87 62 63 40 89 63 99 87 19 46 18 61 -3
41 -27 -23 -214 -147 -224 -147 -25 0 -40 134 -24 210 5 25 4 32 -4 25 -19
-19 -36 -151 -24 -195 13 -50 0 -52 -74 -10 -60 34 -95 78 -97 123 -1 30 3 34
64 64 96 48 182 57 255 27 18 -7 19 -6 5 11 -54 66 -234 59 -312 -13 -86 -79
-41 -234 87 -299 40 -21 39 -19 18 -40 -10 -10 -28 -31 -41 -47 l-22 -29 -31
29 c-62 58 -78 108 -99 306 -26 239 -41 341 -50 351 -4 5 -13 -7 -20 -27 -9
-29 -7 -63 9 -183 12 -81 32 -254 46 -383 14 -129 30 -255 35 -280 14 -68 14
-68 -47 -86 -81 -23 -147 -23 -181 3 -53 40 -64 73 -73 226 -17 283 -52 602
-69 620 -4 5 -13 -6 -19 -23 -8 -26 -7 -59 9 -159 10 -69 24 -187 30 -261 29
-369 30 -374 53 -420 30 -62 73 -83 152 -76 33 3 79 12 101 20 l41 14 7 -74
c11 -133 71 -221 173 -255 19 -6 67 -9 107 -7 90 4 195 52 274 126 47 43 60
50 110 56 66 8 137 27 248 67 44 16 83 29 87 29 4 0 2 -12 -3 -26 -25 -66 -30
-111 -16 -165 8 -30 14 -54 13 -55 -13 -8 -246 -119 -282 -134 -26 -11 -45
-23 -42 -26 7 -8 270 71 321 96 38 19 40 19 63 0 40 -32 124 -45 188 -31 131
30 338 172 385 266 22 44 25 47 28 25 7 -66 26 -112 59 -140 28 -25 42 -30 85
-30 63 0 126 28 168 76 27 31 30 41 30 102 0 78 -23 137 -65 170 -28 22 -70
28 -91 14 -22 -14 -54 -78 -54 -108 0 -50 17 -62 97 -66 53 -3 78 -9 90 -21
17 -17 17 -19 -5 -37 -32 -26 -126 -60 -167 -60 -44 0 -92 40 -104 88 -5 20
-12 91 -16 158 l-7 121 34 14 c18 7 78 58 134 114 106 105 114 120 114 209 -1
103 -96 205 -161 173 -28 -14 -59 -71 -59 -109 0 -44 32 -68 89 -68 63 0 111
-17 111 -39 0 -34 -222 -221 -262 -221 -4 0 -8 22 -8 48 0 26 -9 171 -20 322
-10 151 -20 301 -21 333 -3 62 -10 71 -27 32 -16 -35 -15 -103 8 -449 16 -237
17 -302 7 -308 -18 -13 -86 0 -118 22 -42 30 -63 96 -55 172 5 49 4 59 -5 44
-6 -10 -11 -55 -11 -100 -1 -147 52 -219 157 -214 l50 2 7 -104 8 -104 -43
-44 c-90 -92 -262 -192 -362 -211 -52 -10 -132 -4 -140 9 -3 5 29 29 70 55
233 145 282 241 202 396 -21 41 -30 69 -23 69 7 0 17 -5 24 -12 7 -7 12 -8 12
-4 0 4 -21 33 -47 63 -43 50 -48 53 -60 37 -21 -28 -16 -49 34 -142 25 -48 53
-100 61 -115 7 -15 11 -38 8 -50 -8 -32 -149 -140 -309 -236 l-37 -23 -21 48
c-17 37 -20 59 -15 100 8 74 12 80 59 98 103 38 177 40 177 3 0 -6 -43 -52
-95 -102 -52 -50 -95 -99 -95 -108 0 -21 191 162 215 207 35 64 -5 113 -78 96
-20 -4 -103 -31 -185 -59 -150 -52 -263 -80 -315 -81 -27 0 -27 0 -12 30 21
42 30 146 16 197 -14 52 -75 107 -136 122 -24 6 -95 11 -158 11 -110 0 -224
14 -240 29 -4 4 17 31 48 60 l55 52 37 -30 c40 -31 98 -51 149 -51 56 0 160
39 237 89 l75 49 4 -42 c8 -65 36 -116 75 -133 30 -12 38 -12 76 5 78 35 360
314 374 370 9 37 -16 104 -52 138 -18 17 -78 50 -132 73 -54 22 -111 52 -128
66 l-30 24 28 1 c15 0 27 4 27 8 0 8 -104 62 -120 62 -6 0 -10 -15 -10 -33 0
-28 10 -44 63 -94 67 -65 86 -77 209 -128 86 -36 118 -59 118 -83 0 -18 -165
-188 -245 -252 -78 -62 -140 -93 -168 -84 -33 10 -55 33 -68 71 -11 34 -11 35
63 111 80 82 98 124 78 176 -11 30 -62 56 -110 56 -35 0 -34 -2 -15 43 23 55
19 86 -25 176 -22 45 -40 85 -40 87 0 3 10 2 22 -2 17 -5 12 4 -22 45 -24 28
-47 51 -51 51 -5 0 -11 -11 -15 -24z m1191 -578 c41 -19 29 -31 -25 -26 -55 6
-66 11 -55 27 8 14 48 14 80 -1z m-1585 -123 c0 -10 -52 -25 -63 -18 -7 4 -3
9 9 14 23 9 54 11 54 4z m-222 -258 c-26 -71 -33 -61 -44 60 l-7 78 36 -39 37
-39 -22 -60z m95 28 c23 -10 69 -15 127 -15 49 0 90 -2 90 -5 0 -3 -9 -23 -20
-45 -36 -71 -22 -197 28 -254 23 -26 111 -66 145 -66 41 0 30 -19 -34 -57 -97
-59 -209 -78 -303 -52 -80 22 -156 136 -156 235 0 45 11 42 35 -8 59 -122 167
-85 152 51 -8 71 -60 99 -133 71 -38 -15 -46 3 -26 54 15 40 51 106 57 106 1
0 19 -7 38 -15z m432 -55 c52 -25 86 -74 93 -135 4 -35 -1 -53 -22 -90 -27
-44 -27 -45 -69 -39 -109 16 -164 44 -205 104 -20 30 -23 45 -20 101 2 37 9
73 15 81 17 20 150 6 208 -22z m-424 -166 c36 -18 36 -50 1 -47 -30 4 -72 32
-72 49 0 19 34 18 71 -2z m1752 -11 l32 -18 -44 -3 c-58 -4 -77 3 -61 23 16
20 34 19 73 -2z" fill="#66615B"/>
<path d="M927 923 c-12 -11 -8 -101 5 -109 13 -8 38 22 38 45 -1 13 -2 13 -11
-1 -19 -34 -32 -20 -26 27 7 45 6 50 -6 38z" fill="#f5593d"/>
<path d="M943 612 c-51 -26 -93 -53 -93 -60 0 -10 4 -11 13 -4 6 5 49 28 95
52 45 23 82 46 82 51 0 11 10 15 -97 -39z" fill="#f5593d"/>
<path d="M1231 891 c-6 -11 -11 -37 -11 -58 l0 -38 -31 38 c-30 36 -49 41 -49
11 0 -8 11 -19 25 -24 14 -5 30 -21 37 -35 6 -14 15 -25 20 -25 7 0 13 32 9
54 -1 5 1 22 4 38 5 23 10 27 20 18 21 -18 27 5 6 24 -18 17 -20 17 -30 -3z" fill="#f5593d"/>
<path d="M1574 1928 c-15 -37 -6 -88 16 -88 10 0 22 9 25 21 8 25 -2 39 -11
15 -13 -34 -27 -16 -21 29 7 50 5 56 -9 23z" fill="#f5593d"/>
<path d="M1089 1904 c-22 -56 -11 -138 19 -132 19 4 46 52 39 71 -3 7 -10 -1
-16 -17 -9 -23 -14 -26 -26 -16 -17 15 -19 48 -5 86 6 15 8 29 6 32 -3 3 -11
-8 -17 -24z" fill="#f5593d"/>
<path d="M1217 1901 c-9 -16 -17 -31 -17 -34 0 -7 70 -50 74 -46 2 2 11 18 20
36 l16 32 -34 20 c-18 12 -35 21 -38 21 -2 0 -11 -13 -21 -29z" fill="#66615B"/>
<path d="M952 1898 c-7 -7 -12 -32 -12 -57 l0 -46 -27 38 c-30 42 -56 49 -51
15 2 -15 9 -22 21 -22 12 1 24 -10 34 -32 22 -44 33 -43 34 4 1 52 13 90 23
74 12 -20 27 -3 16 19 -12 22 -21 24 -38 7z" fill="#f5593d"/>
<path d="M1741 1838 c-10 -33 -10 -43 4 -65 15 -22 18 -23 38 -10 34 22 33 58
-1 89 l-29 26 -12 -40z m48 -22 c9 -10 8 -16 -3 -26 -19 -15 -36 -5 -36 21 0
22 22 25 39 5z" fill="#66615B"/>
<path d="M2019 1823 c-12 -31 -3 -83 15 -83 17 0 36 21 36 40 -1 12 -3 12 -14
-3 -19 -25 -30 -5 -22 39 8 41 0 45 -15 7z" fill="#66615B"/>
<path d="M711 1795 c-16 -58 -14 -83 9 -95 15 -8 24 -6 40 10 26 26 25 46 -4
75 -13 13 -26 30 -29 37 -2 7 -9 -5 -16 -27z m48 -39 c9 -10 8 -16 -4 -26 -13
-11 -19 -11 -32 2 -16 17 -10 38 11 38 8 0 19 -6 25 -14z" fill="#66615B"/>
<path d="M2166 1774 c-9 -24 -7 -77 4 -94 9 -13 13 -12 30 9 22 25 26 41 10
41 -5 0 -10 -7 -10 -15 0 -8 -5 -15 -10 -15 -17 0 -23 28 -12 60 11 30 -1 44
-12 14z" fill="#66615B"/>
<path d="M1866 1755 c-9 -13 -16 -28 -16 -32 0 -7 64 -53 74 -53 2 0 10 16 16
36 12 34 11 38 -11 55 -32 25 -44 24 -63 -6z" fill="#66615B"/>
<path d="M1346 1738 c-22 -85 20 -143 47 -65 4 9 2 17 -2 17 -5 0 -12 -8 -16
-17 -12 -30 -26 20 -15 56 5 17 5 31 0 31 -4 0 -10 -10 -14 -22z" fill="#66615B"/>
<path d="M936 1714 c-10 -26 -7 -92 4 -99 16 -10 40 15 39 39 -1 17 -2 17 -6
4 -2 -10 -9 -18 -14 -18 -17 0 -23 32 -12 61 6 16 8 29 3 29 -4 0 -11 -7 -14
-16z" fill="#66615B"/>
<path d="M1138 1700 c-19 -11 -63 -79 -56 -86 3 -2 11 2 18 11 9 11 31 15 77
15 56 0 64 -2 53 -14 -6 -8 -32 -25 -56 -37 -56 -26 -50 -38 8 -16 53 21 123
112 98 128 -20 12 -120 11 -142 -1z" fill="#66615B"/>
<path d="M2404 1686 c-17 -69 19 -127 44 -71 13 29 5 33 -14 8 -11 -17 -13
-16 -19 7 -3 14 -1 38 4 53 7 17 7 27 1 27 -5 0 -12 -11 -16 -24z" fill="#66615B"/>
<path d="M470 1645 c-84 -59 -114 -85 -107 -91 6 -7 197 126 197 137 0 16 -12
9 -90 -46z" fill="#66615B"/>
<path d="M2026 1674 c-12 -32 -4 -53 63 -167 38 -64 72 -125 76 -136 4 -14
-12 -35 -70 -89 -107 -100 -297 -227 -535 -359 -63 -34 -108 -63 -100 -63 8 0
73 16 145 37 121 33 138 42 245 114 210 142 303 234 332 331 14 47 -2 107 -48
185 -39 64 -42 78 -15 63 39 -20 34 -9 -19 45 -30 30 -57 55 -61 55 -4 0 -10
-7 -13 -16z" fill="#f5593d"/>
<path d="M744 1656 c-16 -65 20 -115 44 -61 6 14 8 25 3 25 -5 0 -12 -7 -15
-16 -12 -30 -28 -2 -22 37 7 43 0 53 -10 15z" fill="#66615B"/>
<path d="M485 1589 c-85 -60 -118 -89 -112 -95 7 -7 190 120 195 135 6 19 -10
11 -83 -40z" fill="#66615B"/>
<path d="M2487 1575 c-44 -25 -82 -45 -86 -45 -5 0 -16 -9 -26 -20 -10 -11
-15 -20 -11 -20 14 0 181 93 201 111 31 30 6 22 -78 -26z" fill="#66615B"/>
<path d="M1677 1573 c-11 -20 -17 -65 -11 -88 7 -30 29 -33 44 -6 14 26 13 38
-2 23 -23 -23 -31 -12 -26 33 5 43 4 53 -5 38z" fill="#66615B"/>
<path d="M521 1481 c-6 -11 -11 -37 -11 -58 l-1 -38 -30 38 c-35 42 -49 47
-49 17 0 -13 10 -24 25 -30 14 -5 30 -21 37 -35 17 -38 28 -30 28 19 0 60 8
80 26 65 11 -9 14 -8 14 4 0 8 -6 20 -14 26 -12 10 -17 8 -25 -8z" fill="#66615B"/>
<path d="M1023 1473 c-11 -29 -8 -82 6 -95 10 -11 15 -9 27 6 8 11 14 27 14
35 0 11 -4 10 -14 -5 -14 -18 -15 -18 -21 -1 -4 10 -5 31 -1 47 6 33 -1 40
-11 13z" fill="#f5593d"/>
<path d="M1342 1448 c-7 -7 -12 -32 -12 -57 l-1 -46 -30 38 c-35 42 -49 47
-49 16 0 -13 8 -23 20 -26 12 -3 27 -18 36 -34 23 -45 34 -35 34 31 0 60 6 70
28 48 9 -9 12 -8 12 4 0 24 -24 40 -38 26z" fill="#66615B"/>
<path d="M1737 1453 c-4 -3 -7 -26 -7 -50 0 -23 -3 -43 -7 -43 -5 0 -18 16
-31 35 -26 41 -42 45 -42 10 0 -18 5 -25 20 -25 12 0 26 -12 35 -30 23 -45 35
-36 35 24 0 52 13 81 23 54 2 -7 8 -10 12 -6 4 4 5 14 2 23 -7 15 -28 20 -40
8z" fill="#66615B"/>
<path d="M2034 1425 c-13 -71 19 -114 44 -60 16 35 14 44 -4 20 -21 -28 -35
-3 -23 39 11 38 11 36 -1 36 -5 0 -12 -16 -16 -35z" fill="#66615B"/>
<path d="M1204 1315 c-13 -72 16 -109 43 -55 15 30 8 40 -11 15 -18 -25 -30
-4 -22 41 4 19 5 34 2 34 -3 0 -8 -16 -12 -35z" fill="#66615B"/>
<path d="M497 1333 c-14 -14 -7 -32 11 -26 10 4 6 -4 -11 -21 -32 -30 -32 -37
4 -155 10 -35 19 -78 19 -97 0 -19 4 -34 9 -34 15 0 7 67 -20 168 -13 50 -20
94 -16 98 3 4 20 7 37 8 38 1 40 27 5 50 -28 18 -29 19 -38 9z" fill="#66615B"/>
<path d="M1586 1314 c-10 -27 -7 -92 6 -100 12 -8 38 22 38 45 0 11 -4 10 -14
-5 -14 -19 -15 -19 -22 0 -4 10 -2 32 3 47 6 16 8 29 3 29 -4 0 -11 -7 -14
-16z" fill="#66615B"/>
<path d="M1900 1227 c-86 -58 -133 -97 -116 -97 10 0 214 138 221 150 13 21
-13 8 -105 -53z" fill="#66615B"/>
<path d="M2220 1206 c-18 -48 -10 -106 15 -106 13 0 25 21 25 43 0 7 -4 6 -10
-3 -7 -11 -12 -12 -20 -4 -8 8 -9 22 -1 50 12 45 6 59 -9 20z" fill="#66615B"/>
<path d="M2440 1199 c-9 -16 -8 -25 6 -40 17 -19 16 -21 -26 -64 -24 -25 -39
-45 -32 -45 7 0 30 19 53 42 30 31 43 38 48 29 6 -10 10 -10 16 -1 4 6 0 19
-9 29 -9 10 -13 20 -10 24 10 10 -7 47 -21 47 -8 0 -19 -9 -25 -21z" fill="#66615B"/>
<path d="M1410 1106 c-16 -44 -13 -131 6 -147 14 -11 19 -10 35 10 11 13 19
35 18 50 l-1 26 -10 -27 c-23 -65 -57 -8 -38 63 13 47 6 65 -10 25z" fill="#f5593d"/>
<path d="M2626 988 c-22 -31 -20 -43 10 -67 35 -28 41 -27 60 11 16 32 16 32
-12 55 -36 28 -39 28 -58 1z" fill="#f5593d"/>
<path d="M2516 975 c-9 -13 -16 -29 -16 -35 0 -9 57 -50 70 -50 3 0 11 15 18
33 12 30 11 34 -13 55 -33 28 -39 28 -59 -3z" fill="#f5593d"/>
<path d="M526 958 c-11 -43 -7 -88 10 -95 19 -7 34 13 33 42 -1 17 -2 17 -6 3
-5 -19 -18 -24 -27 -10 -3 4 -1 25 4 45 8 39 -4 52 -14 15z" fill="#f5593d"/>
<path d="M1866 964 c-10 -26 -7 -92 4 -99 16 -10 40 15 39 39 -1 17 -2 17 -6
4 -2 -10 -9 -18 -14 -18 -17 0 -23 32 -12 61 6 16 8 29 3 29 -4 0 -11 -7 -14
-16z" fill="#66615B"/>
<path d="M2405 851 c-8 -48 9 -88 30 -71 16 13 26 50 14 50 -5 0 -9 -7 -9 -15
0 -8 -5 -15 -11 -15 -8 0 -10 15 -7 45 7 55 -8 60 -17 6z" fill="#66615B"/>
<path d="M1566 844 c4 -29 1 -44 -10 -53 -21 -18 -36 -5 -36 30 0 16 -5 29
-11 29 -10 0 -5 -62 7 -81 10 -17 46 -9 51 10 4 16 8 18 23 9 44 -28 67 25 30
72 -23 30 -26 20 -5 -19 14 -27 11 -41 -7 -41 -5 0 -18 19 -28 43 l-20 42 6
-41z" fill="#66615B"/>
<path d="M2179 843 c-12 -30 -14 -77 -4 -93 11 -18 44 -10 60 14 19 28 9 58
-26 76 -11 6 -17 15 -14 21 4 5 4 9 0 9 -3 0 -10 -12 -16 -27z m51 -54 c0 -15
-30 -23 -42 -11 -6 6 -8 18 -4 27 4 13 10 14 26 5 11 -6 20 -15 20 -21z" fill="#66615B"/>
<path d="M2136 704 c-13 -33 -6 -94 10 -101 19 -7 34 13 33 42 -1 17 -2 17 -6
3 -2 -10 -11 -18 -19 -18 -17 0 -19 42 -4 71 6 11 7 19 1 19 -5 0 -12 -7 -15
-16z" fill="#66615B"/>
<path d="M1586 604 c-10 -27 -7 -92 6 -100 13 -8 38 22 38 45 -1 13 -2 13 -11
-1 -19 -34 -32 -20 -26 27 7 46 4 57 -7 29z" fill="#66615B"/>
<path d="M1435 550 c-20 -38 -20 -37 18 -60 42 -26 42 -26 58 11 12 30 11 33
-15 55 -35 31 -42 30 -61 -6z" fill="#66615B"/>
<path d="M1336 504 c-3 -9 -6 -32 -6 -51 l0 -36 -34 39 c-29 33 -35 36 -41 21
-8 -19 12 -50 26 -41 5 3 19 -12 31 -33 22 -36 23 -37 26 -13 11 105 14 115
27 97 9 -12 15 -14 20 -7 8 13 -12 40 -30 40 -7 0 -16 -7 -19 -16z" fill="#66615B"/>
<path d="M2277 482 c-19 -21 -23 -42 -5 -24 7 7 16 12 20 12 12 0 10 -38 -2
-45 -5 -3 -15 -16 -21 -28 -10 -20 -8 -19 16 4 17 17 27 38 28 59 2 39 -13 48
-36 22z" fill="#f5593d"/>
<path d="M1190 444 c-6 -14 -10 -32 -10 -40 0 -20 18 -54 29 -54 10 0 34 51
27 58 -3 3 -8 -3 -12 -12 -12 -32 -26 -15 -22 29 4 52 1 55 -12 19z" fill="#66615B"/>
</g>
</svg>
